<svg width="32" height="32" viewBox="0 0 32 32" fill="none" xmlns="http://www.w3.org/2000/svg">
<g id="wc-meta">
<circle id="Box" cx="16" cy="16" r="16" fill="#F7F9FB"/>
<g id="Logo">
<path id="1" d="M25.6132 6L17.2793 12.25L18.8291 8.56667L25.6132 6Z" fill="#E17726" stroke="#E17726" stroke-width="0.25" stroke-linecap="round" stroke-linejoin="round"/>
<path id="2" d="M6.38867 6L14.6483 12.3083L13.1728 8.56666L6.38867 6Z" fill="#E27625" stroke="#E27625" stroke-width="0.25" stroke-linecap="round" stroke-linejoin="round"/>
<path id="3" d="M22.6119 20.4922L20.3945 23.9255L25.1426 25.2505L26.5028 20.5672L22.6119 20.4922Z" fill="#E27625" stroke="#E27625" stroke-width="0.25" stroke-linecap="round" stroke-linejoin="round"/>
<path id="4" d="M5.50781 20.5672L6.85969 25.2505L11.5995 23.9255L9.39035 20.4922L5.50781 20.5672Z" fill="#E27625" stroke="#E27625" stroke-width="0.25" stroke-linecap="round" stroke-linejoin="round"/>
<path id="5" d="M11.3423 14.6924L10.0234 16.7091L14.722 16.9258L14.5654 11.8008L11.3423 14.6924Z" fill="#E27625" stroke="#E27625" stroke-width="0.25" stroke-linecap="round" stroke-linejoin="round"/>
<path id="6" d="M20.657 14.6922L17.3845 11.7422L17.2773 16.9255L21.9759 16.7089L20.657 14.6922Z" fill="#E27625" stroke="#E27625" stroke-width="0.25" stroke-linecap="round" stroke-linejoin="round"/>
<path id="7" d="M11.5996 23.9246L14.4435 22.5329L11.9953 20.5996L11.5996 23.9246Z" fill="#E27625" stroke="#E27625" stroke-width="0.25" stroke-linecap="round" stroke-linejoin="round"/>
<path id="8" opacity="0.8" d="M17.5586 22.5329L20.3942 23.9246L20.0068 20.5996L17.5586 22.5329Z" fill="#E27625" stroke="#E27625" stroke-width="0.25" stroke-linecap="round" stroke-linejoin="round"/>
<path id="9" d="M20.3942 23.9248L17.5586 22.5332L17.7894 24.3998L17.7646 25.1915L20.3942 23.9248Z" fill="#D5BFB2" stroke="#D5BFB2" stroke-width="0.25" stroke-linecap="round" stroke-linejoin="round"/>
<path id="10" d="M11.5996 23.9248L14.2374 25.1915L14.2209 24.3998L14.4435 22.5332L11.5996 23.9248Z" fill="#D5BFB2" stroke="#D5BFB2" stroke-width="0.25" stroke-linecap="round" stroke-linejoin="round"/>
<path id="11" d="M14.2853 19.3676L11.9277 18.6676L13.5928 17.8926L14.2853 19.3676Z" fill="#233447" stroke="#233447" stroke-width="0.25" stroke-linecap="round" stroke-linejoin="round"/>
<path id="12" d="M17.7148 19.3676L18.4073 17.8926L20.0807 18.6676L17.7148 19.3676Z" fill="#233447" stroke="#233447" stroke-width="0.25" stroke-linecap="round" stroke-linejoin="round"/>
<path id="13" d="M11.5978 23.9255L12.01 20.4922L9.38867 20.5672L11.5978 23.9255Z" fill="#CC6228" stroke="#CC6228" stroke-width="0.25" stroke-linecap="round" stroke-linejoin="round"/>
<path id="14" d="M19.9902 20.4922L20.3942 23.9255L22.6116 20.5672L19.9902 20.4922Z" fill="#CC6228" stroke="#CC6228" stroke-width="0.25" stroke-linecap="round" stroke-linejoin="round"/>
<path id="15" d="M21.9759 16.709L17.2773 16.9257L17.7142 19.3674L18.4067 17.8923L20.08 18.6673L21.9759 16.709Z" fill="#CC6228" stroke="#CC6228" stroke-width="0.25" stroke-linecap="round" stroke-linejoin="round"/>
<path id="16" d="M11.9276 18.6673L13.5927 17.8923L14.2852 19.3674L14.722 16.9257L10.0234 16.709L11.9276 18.6673Z" fill="#CC6228" stroke="#CC6228" stroke-width="0.25" stroke-linecap="round" stroke-linejoin="round"/>
<path id="17" d="M10.0254 16.709L11.9955 20.6007L11.9295 18.6673L10.0254 16.709Z" fill="#E27525" stroke="#E27525" stroke-width="0.25" stroke-linecap="round" stroke-linejoin="round"/>
<path id="18" d="M20.082 18.6673L20.0078 20.6007L21.9779 16.709L20.082 18.6673Z" fill="#E27525" stroke="#E27525" stroke-width="0.25" stroke-linecap="round" stroke-linejoin="round"/>
<path id="19" d="M14.724 16.9258L14.2871 19.3675L14.8394 22.2508L14.9631 18.4508L14.724 16.9258Z" fill="#E27525" stroke="#E27525" stroke-width="0.25" stroke-linecap="round" stroke-linejoin="round"/>
<path id="20" d="M17.2777 16.9258L17.0469 18.4425L17.1623 22.2508L17.7146 19.3675L17.2777 16.9258Z" fill="#E27525" stroke="#E27525" stroke-width="0.25" stroke-linecap="round" stroke-linejoin="round"/>
<path id="21" d="M17.7144 19.366L17.1621 22.2493L17.5578 22.5327L20.006 20.5993L20.0802 18.666L17.7144 19.366Z" fill="#F5841F" stroke="#F5841F" stroke-width="0.25" stroke-linecap="round" stroke-linejoin="round"/>
<path id="22" d="M11.9277 18.666L11.9937 20.5993L14.4419 22.5327L14.8376 22.2493L14.2853 19.366L11.9277 18.666Z" fill="#F5841F" stroke="#F5841F" stroke-width="0.25" stroke-linecap="round" stroke-linejoin="round"/>
<path id="23" d="M17.7655 25.1925L17.7902 24.4008L17.5759 24.2174H14.427L14.2209 24.4008L14.2374 25.1925L11.5996 23.9258L12.5228 24.6924L14.394 26.0008H17.6006L19.4801 24.6924L20.395 23.9258L17.7655 25.1925Z" fill="#C0AC9D" stroke="#C0AC9D" stroke-width="0.25" stroke-linecap="round" stroke-linejoin="round"/>
<path id="24" d="M17.5592 22.5333L17.1635 22.25H14.8389L14.4433 22.5333L14.2207 24.4L14.4268 24.2166H17.5757L17.79 24.4L17.5592 22.5333Z" fill="#161616" stroke="#161616" stroke-width="0.25" stroke-linecap="round" stroke-linejoin="round"/>
<path id="25" d="M25.9666 12.6583L26.6673 9.20833L25.6121 6L17.5586 12.0417L20.658 14.6916L25.0351 15.9833L25.9996 14.8417L25.5792 14.5333L26.2469 13.9167L25.7358 13.5167L26.4035 13L25.9666 12.6583Z" fill="#763E1A" stroke="#763E1A" stroke-width="0.25" stroke-linecap="round" stroke-linejoin="round"/>
<path id="26" d="M5.33398 9.20833L6.0429 12.6583L5.58953 13L6.26546 13.5167L5.75439 13.9167L6.42208 14.5333L6.00168 14.8417L6.96613 15.9833L11.3433 14.6916L14.4427 12.0417L6.38911 6L5.33398 9.20833Z" fill="#763E1A" stroke="#763E1A" stroke-width="0.25" stroke-linecap="round" stroke-linejoin="round"/>
<path id="27" d="M25.0361 15.983L20.659 14.6914L21.9779 16.7081L20.0078 20.5997L22.6127 20.5664H26.5034L25.0361 15.983Z" fill="#F5841F" stroke="#F5841F" stroke-width="0.25" stroke-linecap="round" stroke-linejoin="round"/>
<path id="28" d="M11.344 14.6914L6.96685 15.983L5.50781 20.5664H9.39035L11.9952 20.5997L10.0251 16.7081L11.344 14.6914Z" fill="#F5841F" stroke="#F5841F" stroke-width="0.25" stroke-linecap="round" stroke-linejoin="round"/>
<path id="29" d="M17.2789 16.9247L17.5592 12.0414L18.8286 8.56641H13.1738L14.4433 12.0414L14.7235 16.9247L14.8307 18.4581L14.8389 22.2497H17.1635L17.1718 18.4581L17.2789 16.9247Z" fill="#F5841F" stroke="#F5841F" stroke-width="0.25" stroke-linecap="round" stroke-linejoin="round"/>
</g>
</g>
</svg>
