<svg width="32" height="32" viewBox="0 0 32 32" fill="none" xmlns="http://www.w3.org/2000/svg">
<g id="wc-connect">
<circle id="Box" cx="16" cy="16" r="16" fill="white"/>
<g id="Group">
<path id="Vector" d="M17.6859 13.9941H13.3451C13.1608 13.9941 13.0098 14.1452 13.0098 14.3294V18.6703C13.0098 18.8545 13.1608 19.0056 13.3451 19.0056H17.6859C17.8701 19.0056 18.0212 18.8545 18.0212 18.6703V14.3294C18.0212 14.1452 17.8701 13.9941 17.6859 13.9941Z" fill="black"/>
<path id="Vector_2" d="M12.6761 9H8.33531C8.15105 9 8 9.15105 8 9.33531V13.6761C8 13.8604 8.15105 14.0114 8.33531 14.0114H12.6761C12.8604 14.0114 13.0114 13.8604 13.0114 13.6761V9.33531C13.0104 9.15105 12.8604 9 12.6761 9Z" fill="black"/>
<path id="Vector_3" d="M22.68 9H18.3392C18.155 9 18.0039 9.15105 18.0039 9.33531V13.6761C18.0039 13.8604 18.155 14.0114 18.3392 14.0114H22.68C22.8643 14.0114 23.0153 13.8604 23.0153 13.6761V9.33531C23.0153 9.15105 22.8643 9 22.68 9Z" fill="black"/>
<path id="Vector_4" d="M12.6761 18.9883H8.33531C8.15105 18.9883 8 19.1393 8 19.3236V23.6644C8 23.8487 8.15105 23.9997 8.33531 23.9997H12.6761C12.8604 23.9997 13.0114 23.8487 13.0114 23.6644V19.3236C13.0104 19.1393 12.8604 18.9883 12.6761 18.9883Z" fill="black"/>
<path id="Vector_5" d="M22.68 18.9883H18.3392C18.155 18.9883 18.0039 19.1393 18.0039 19.3236V23.6644C18.0039 23.8487 18.155 23.9997 18.3392 23.9997H22.68C22.8643 23.9997 23.0153 23.8487 23.0153 23.6644V19.3236C23.0153 19.1393 22.8643 18.9883 22.68 18.9883Z" fill="black"/>
</g>
</g>
</svg>
