<svg width="34" height="31" viewBox="0 0 34 31" fill="none" xmlns="http://www.w3.org/2000/svg">
<path id="Vector" d="M3.14805 30.9917C2.30154 30.9917 1.57662 30.69 0.973286 30.0867C0.369954 29.4834 0.0688008 28.759 0.0698268 27.9135V9.44414C0.0698268 8.59763 0.371493 7.87271 0.974825 7.26938C1.57816 6.66605 2.30257 6.36489 3.14805 6.36592H7.99625L10.8436 3.2877H20.0783V9.44414H24.6956V14.0615H30.8521V27.9135C30.8521 28.76 30.5504 29.4849 29.9471 30.0883C29.3437 30.6916 28.6193 30.9927 27.7738 30.9917H3.14805ZM15.4609 25.6048C17.3848 25.6048 19.0204 24.9312 20.3676 23.584C21.7149 22.2367 22.388 20.6017 22.387 18.6788C22.387 16.7549 21.7133 15.1194 20.3661 13.7721C19.0189 12.4249 17.3838 11.7518 15.4609 11.7528C13.5371 11.7528 11.9015 12.4264 10.5543 13.7737C9.20702 15.1209 8.53392 16.756 8.53494 18.6788C8.53494 20.6027 9.20856 22.2383 10.5558 23.5855C11.903 24.9327 13.5381 25.6058 15.4609 25.6048ZM15.4609 22.5266C14.3836 22.5266 13.4729 22.1546 12.729 21.4107C11.9851 20.6668 11.6132 19.7562 11.6132 18.6788C11.6132 17.6014 11.9851 16.6908 12.729 15.9469C13.4729 15.203 14.3836 14.831 15.4609 14.831C16.5383 14.831 17.449 15.203 18.1929 15.9469C18.9368 16.6908 19.3087 17.6014 19.3087 18.6788C19.3087 19.7562 18.9368 20.6668 18.1929 21.4107C17.449 22.1546 16.5383 22.5266 15.4609 22.5266ZM27.7738 9.44414V6.36592H24.6956V3.2877H27.7738V0.209473H30.8521V3.2877H33.9303V6.36592H30.8521V9.44414H27.7738Z" fill="#fff"/>
</svg>
