<svg width="53" height="36" viewBox="0 0 53 36" fill="none" xmlns="http://www.w3.org/2000/svg">
<path d="M52.9992 35.1804H37.6172L35.2313 30.0575L26.7086 11.8014L26.3637 11.0563L24.1457 6.30134L23.9733 5.93342H19.1923L19.0199 6.30134L16.7972 11.0563L16.457 11.8014L7.93423 30.0575H13.06L19.0199 17.2922L21.5828 11.8014L24.1457 17.2922L21.5828 22.7877L18.1858 30.0575L15.8 35.1804H0.417969L2.80845 30.0575L11.6714 11.0563L13.8894 6.30134L14.0665 5.93342L16.457 0.810547H26.7086L29.099 5.93342L29.2715 6.30134L31.4942 11.0563L40.3571 30.0575H45.4829L36.62 11.0563L35.4271 8.49485H40.5528L41.7458 11.0563L50.6133 30.0575L52.9992 35.1804Z" fill="url(#paint0_linear_1149_351)"/>
<defs>
<linearGradient id="paint0_linear_1149_351" x1="26.7091" y1="-14.0352" x2="26.7091" y2="41.211" gradientUnits="userSpaceOnUse">
<stop stop-color="#862B95"/>
<stop offset="0.5" stop-color="#FF7131"/>
<stop offset="1" stop-color="#FF3C68"/>
</linearGradient>
</defs>
</svg>
